<?xml version="1.0" encoding="UTF-8"?> <svg xmlns="http://www.w3.org/2000/svg" id="Layer_1" width="200mm" height="96.26mm" viewBox="0 0 566.92 272.85"><path d="m417.37,153.76c.5.2,1.1.3,1.6.3.8,0,1.5-.1,2.3-.5,1.2-.5,2.2-1.5,2.6-2.8l5.2-13.8,7.4,2.8c8.6,3.2,18.2-1,21.4-9.5,1.6-4.2,1.4-8.7-.4-12.7-1.8-4.1-5.1-7.2-9.3-8.7l-12.2-4.6c-2.6-1-5.5.3-6.5,2.9l-15.2,40.1c-.5,1.2-.4,2.6.1,3.8.8,1.3,1.8,2.2,3,2.7Zm20-38.3l7.4,2.8c3.4,1.3,5,5,3.8,8.4-1.3,3.3-5,5-8.4,3.7l-7.4-2.8,4.6-12.1Zm-220,127.1c-5.4,2-8.1,8-6.1,13.3,2,5.4,8,8.1,13.3,6.1,5.4-2,8.1-8,6.1-13.3-1.9-5.4-7.9-8.1-13.3-6.1Zm235.6-74.2c.6.3,1.3.5,2,.5.6,0,1.3-.1,1.9-.3,1.3-.4,2.3-1.4,2.9-2.6l18.2-38.9c1.2-2.5,0-5.5-2.5-6.7-2.6-1.2-5.5-.1-6.7,2.4l-18.2,38.9c-1.2,2.6-.2,5.5,2.4,6.7Zm-34.9-65.2c-2.2-3.8-5.8-6.6-10.1-7.8l-12.6-3.4c-2.7-.7-5.4.9-6.1,3.5l-11.1,41.5c-.7,2.7.9,5.4,3.5,6.1.4.1.8.2,1.2.2.9,0,1.9-.2,2.7-.7,1.2-.7,2-1.7,2.3-3l3.8-14.3,7.7,2.1c8.9,2.4,18-2.8,20.4-11.6,1.1-4.2.6-8.7-1.7-12.6Zm-8.1,10.1c-1,3.5-4.5,5.4-8,4.5l-7.7-2.1,3.4-12.5,7.7,2.1c3.5.9,5.5,4.4,4.6,8Zm113.8,36.1c-.3-1.3-1.2-2.4-2.3-3.1-2.4-1.4-5.4-.6-6.8,1.8l-13.6,23.2-3.5-36.8c-.2-2.7-2.7-4.6-5.4-4.5-1.6.2-3.1,1.2-3.9,2.6l-21.3,36.4c-.7,1.2-.9,2.5-.5,3.8.3,1.3,1.2,2.4,2.3,3.1,1.1.6,2.5.8,3.7.5,1.3-.3,2.4-1.2,3.1-2.3l13.7-23.3,3.4,36.3c0,.3,0,.6.1.8.2,1.5,1.1,2.8,2.3,3.5.7.4,1.5.7,2.3.7,1.8.1,3.6-.8,4.5-2.5l21.4-36.5c.7-1.1.9-2.5.5-3.7ZM10.77,214.06c-6.3,2.4-9.6,9.4-7.2,15.8,2.4,6.3,9.4,9.6,15.8,7.2,6.3-2.4,9.6-9.4,7.2-15.8s-9.4-9.5-15.8-7.2ZM26.87,62.66c6.9-2.6,10.5-10.3,7.9-17.2-2.6-6.9-10.3-10.5-17.2-7.9-7,2.6-10.6,10.3-8,17.3,2.6,6.9,10.3,10.4,17.3,7.8ZM446.57,21.66c5.2-2.1,7.6-8.1,5.5-13.2-2.1-5.2-8.1-7.6-13.2-5.5-5.2,2.1-7.6,8.1-5.5,13.2,2.1,5.2,8,7.7,13.2,5.5Zm-256,127.2c.6,0,1.2-.1,1.7-.2,1.3-.4,2.3-1.3,3-2.4.7-1.2.8-2.6.4-3.9l-12.9-41c-.8-2.6-3.7-4.1-6.4-3.3-1.3.4-2.4,1.3-3,2.5s-.7,2.5-.3,3.8l12.9,41c.7,2.1,2.6,3.4,4.6,3.5Zm18.6-5.3c.5,0,1,0,1.4-.1l23-5.2c2.6-.6,4.4-3.3,3.8-6-.3-1.3-1.1-2.4-2.3-3.2-1.1-.7-2.5-1-3.8-.7l-18.2,4.1-8.3-36.9c-.3-1.3-1.1-2.4-2.2-3.1-1.1-.7-2.5-.9-3.8-.7-2.7.6-4.4,3.3-3.8,6l9.4,41.9c.5,2.2,2.5,3.8,4.8,3.9Zm-36.8,8.3c1.4,1.5,3.6,2,5.5,1.1.6-.3,1.2-.6,1.5-.9,2-1.9,2.1-5.1.2-7.2l-31.5-33.2c-1.5-1.5-3.8-1.9-5.6-1.1-1.9.7-3.2,2.7-3.2,4.8l1.9,45.8c.2,2.7,2.3,4.7,5,4.8h.4c.6,0,1.1-.2,1.7-.4,1.9-.8,3.1-2.7,3.1-4.8l-.4-9.4,15-6.3,6.4,6.8Zm-22-11.2l-.5-12.5,8.7,9.1-8.2,3.4Zm-55-6.6l-7.5,4.2c-1.2.7-2,1.7-2.4,3s-.2,2.6.5,3.8l21.2,37.3c.7,1.2,1.7,2,3,2.4.4.1.8.2,1.2.2.9,0,1.8-.2,2.7-.7l7.5-4.2c12.7-7.2,17.1-23.4,9.8-36.1-7.2-12.7-23.3-17.1-36-9.9Zm21.2,37.2l-3,1.7-16.2-28.5,3-1.7c3.8-2.2,8.2-2.7,12.4-1.6,4.2,1.2,7.7,3.9,9.8,7.7,4.6,8,1.9,17.8-6,22.4Zm147.4-82.1c1.2-2.4.3-5.4-2-6.7-2.4-1.3-5.4-.5-6.8,2l-9.4,17.3-13.6-14.2c-.9-1-2.1-1.5-3.4-1.6h0c-1.4,0-2.6.4-3.7,1.4-1,.9-1.5,2.2-1.6,3.5,0,1.3.5,2.6,1.5,3.5l17.2,18,2.6,19.1c.3,2.5,2.4,4.3,4.8,4.3h.9c1.4-.2,2.5-.9,3.3-1.9.8-1.1,1.1-2.4,1-3.7l-2.6-19.1,11.8-21.9h0Zm277.6.3c-5.9-1.4-11.9-1.1-17.3.6-.6-4.9-2-9.7-4.3-14.4-10.8-21.7-37.2-30.4-58.8-19.6-1.5.7-2.8,1.5-4.2,2.4-4.2-8.7-12-15.4-22.1-17.8-5.7-1.4-11.4-1.1-16.6.4-3.9-13-14.4-23.6-28.6-27-14.8-3.5-29.7,1.8-39,12.7-1.1-1.5-2.2-3.1-3.4-4.5-21.7-26.2-60.5-29.8-86.7-8-5,4.1-9.1,8.9-12.4,14-.5-.7-1-1.4-1.6-2.1C225.17-1.24,185.57-6.04,158.17,15.46c-12.5,9.4-20.2,22.8-23,37.1-11.6-12.2-29.9-17-46.7-10.7-21.7,8-33.1,31.6-26.3,53.5-9.4-2.2-19.5-1.8-29.2,1.8C6.77,106.96-6.53,136.06,3.17,162.26c8.9,24,34.2,37.2,58.5,31.7-3.4,12.2-3.2,25.6,1.6,38.4,12,32.2,47.8,48.5,79.9,36.6,20.3-7.6,34.3-24.6,38.9-44.3,7.2,4.5,16.3,5.7,24.8,2.5,8-3,13.8-9.2,16.6-16.6,16.7,13.1,39.7,17.5,61.1,9.5,11.8-4.4,21.5-12,28.5-21.4,11,16.5,32.8,22.6,51,13.5,4.8-2.4,9-5.7,12.3-9.5.3,1.2.7,2.5,1.2,3.7,8.2,22.1,32.9,33.4,55,25.1,4.6-1.7,8.7-4.2,12.3-7.1.2.9.5,1.8.8,2.6,5,13.3,19.8,20.1,33.1,15.1,2.8-1,5.3-2.5,7.4-4.3-107.3-82.5-260.8-87-373.8-1.6L30.47,128.06c161.9-122.4,381.3-116.7,535.8.1,3.5-17.4-7.4-34.6-24.7-38.7Zm-186-6.5c-7-1-14.1.9-19.5,5.3-5.5,4.4-9.1,10.7-10.2,17.8-1,7.2.6,14.3,4.6,20,4,5.8,10.3,9.7,17.2,10.7.8.1,1.6.2,2.5.2,5.9.2,12-1.8,16.6-5.6,5.6-4.4,9.3-10.7,10.3-17.8,1-7-.7-14.1-4.8-20-3.7-5.6-10-9.6-16.7-10.6Zm11.3,29.2c-.6,4.4-3,8.5-6.4,11.2s-7.4,3.9-11.4,3.3c-4.2-.6-7.7-2.8-10.2-6.5-2.5-3.4-3.5-8-2.9-12.5.7-4.5,3-8.6,6.4-11.2,2.9-2.3,6.3-3.5,9.9-3.4.6,0,1.1.1,1.7.2,4,.6,7.5,2.8,9.9,6.3,2.6,3.5,3.7,8.1,3,12.6Zm195,67.6c-1.6-4.3-3.7-10.1-9.4-14.5-3.9-3-8.5-4.7-13-4.7-4.9-.1-9.2,1.9-11.9,5.4-1.4,1.9-2.3,4-2.5,6.3-.3,2.9.4,6,2.1,9.2,1.3,2.5,3.2,5.2,6,8.2,2.8,3.1,4.9,6.1,5.7,8.4.3,1,.5,1.8.4,2.6-.1.7-.3,1.2-.7,1.7-1,1.3-2.6,1.9-4.8,1.9-2.7-.1-5.7-1.2-8.3-3.1-3.9-2.9-6.4-8.4-7.3-12.3-.6-2.6-3.2-4.2-5.8-3.5h0c-2.5.7-4.1,3.3-3.5,5.8,1.4,5.3,4.4,12.6,10.8,17.6,4.1,3.1,8.8,4.8,13.4,5h.4c5.2.1,9.8-1.9,12.6-5.6,1.4-1.9,2.3-4.2,2.5-6.5.3-3-.5-6.2-2.3-9.8-1.4-2.7-3.4-5.5-6.4-8.8-2.6-2.8-4.4-5.6-5.1-7.7-.3-.9-.4-1.7-.4-2.3,0-.4.2-.8.6-1.4.8-1.1,2.2-1.6,4.2-1.6,2.5,0,5.1,1,7.4,2.7,3.3,2.5,4.7,6.1,6.2,10.3.4,1.2,1.3,2.2,2.5,2.7s2.4.6,3.6.1c2.4-.8,3.8-3.5,2.9-6l.1-.1Zm-257.3-66.4c9.2.1,16.8-7.2,16.9-16.3.1-4.5-1.6-8.7-4.7-11.9-3.1-3.2-7.2-5-11.7-5l-13-.2c-2.8,0-5,2.2-5.1,4.9l-.6,42.9c0,2.7,2.1,5,4.8,5.1h.1c2.8,0,5.1-2.2,5.2-4.9l.2-14.8,7.9.2h0Zm-7.8-10.2l.2-13,7.9.1c3.6,0,6.4,3,6.5,6.6-.1,3.6-3,6.4-6.6,6.3h-8Zm-2.6,95.6s-11.6,18.4-32.5,17.7-30.9-12.6-27.1-15c3.7-2.4,12.5,9,28.8,9.8,16.2.8,30.8-12.5,30.8-12.5h0ZM359.47,29.26s7-11.5,19.4-10.7c12.4.8,18.2,8.5,16,10s-7.5-5-17.1-5.8-17.4,6.1-17.4,6.1l-.9.4Zm-211,20.9s2.5-25.3,24.7-35.5c22.2-10.2,38.8-3,36.2,1.5s-17.8-2.9-35.2,4.8c-17.5,7.7-25.7,29.2-25.7,29.2h0Zm21.2,188.3s-16,27.1-46.2,27-45.2-16.9-39.9-20.6c5.3-3.7,18.5,12.5,42,13,23.6.5,44.1-19.4,44.1-19.4h0Z" style="fill:#ef423e;"></path></svg> 